<svg viewBox="0 0 20 20" xmlns="http://www.w3.org/2000/svg" xmlns:xlink="http://www.w3.org/1999/xlink" width="20.000000" height="20.000000" fill="none">
	<rect id="001-shopping-bag" width="20.000000" height="20.000000" x="0.000000" y="0.000000" fill="rgb(255,255,255)" fill-opacity="0" />
	<g id="Group">
		<path id="Vector" d="M17.6562 4.6875L15.2755 4.6875C14.9652 2.05164 12.7179 0 10 0C7.28215 0 5.0348 2.05164 4.72445 4.6875L2.34375 4.6875C1.91227 4.6875 1.5625 5.03727 1.5625 5.46875L1.5625 19.2188C1.5625 19.6502 1.91227 20 2.34375 20L17.6562 20C18.0877 20 18.4375 19.6502 18.4375 19.2188L18.4375 5.46875C18.4375 5.03727 18.0877 4.6875 17.6562 4.6875ZM10 1.5625C11.8548 1.5625 13.3992 2.91621 13.6976 4.6875L6.30238 4.6875C6.60082 2.91621 8.14516 1.5625 10 1.5625ZM16.875 18.4375L3.125 18.4375L3.125 6.25L4.6875 6.25L4.6875 8.59375C4.6875 9.02523 5.03727 9.375 5.46875 9.375C5.90023 9.375 6.25 9.02523 6.25 8.59375L6.25 6.25L13.75 6.25L13.75 8.59375C13.75 9.02523 14.0998 9.375 14.5312 9.375C14.9627 9.375 15.3125 9.02523 15.3125 8.59375L15.3125 6.25L16.875 6.25L16.875 18.4375Z" fill="rgb(255,255,255)" fill-rule="nonzero" />
	</g>
</svg>
