<svg viewBox="0 0 20 20" xmlns="http://www.w3.org/2000/svg" xmlns:xlink="http://www.w3.org/1999/xlink" width="20.000000" height="20.000000" fill="none">
	<rect id="002-search" width="20.000000" height="20.000000" x="0.000000" y="0.000000" fill="rgb(255,255,255)" fill-opacity="0" />
	<g id="Group">
		<g id="Group">
			<path id="Vector" d="M19.7712 18.6663L14.5271 13.4223C15.7004 12.0031 16.4062 10.184 16.4062 8.20313C16.4062 3.67992 12.7263 0 8.20312 0C3.67992 0 0 3.67992 0 8.20313C0 12.7263 3.67992 16.4063 8.20312 16.4063C10.184 16.4063 12.0031 15.7004 13.4223 14.5271L18.6663 19.7712C18.9714 20.0763 19.4661 20.0763 19.7712 19.7712C20.0763 19.4661 20.0763 18.9714 19.7712 18.6663ZM8.20312 14.8438C4.54148 14.8438 1.5625 11.8648 1.5625 8.20313C1.5625 4.54148 4.54148 1.5625 8.20312 1.5625C11.8648 1.5625 14.8438 4.54148 14.8438 8.20313C14.8438 11.8648 11.8648 14.8438 8.20312 14.8438Z" fill="rgb(255,255,255)" fill-rule="nonzero" />
		</g>
	</g>
</svg>
